<svg xmlns="http://www.w3.org/2000/svg" viewBox="0 0 100 100">
<rect width="100" height="100" fill="#14466b"/>
<g transform="translate(20.305 81.000) scale(0.088571 -0.088571)">
<path fill="#ffffff" d="M218.2 350Q218.2 414.6 247.3 460.6Q276.3 506.5 323.8 531Q371.3 555.4 427.9 555.4Q477.9 555.4 516 542.7Q554.1 530 584 508.7Q614 487.4 636.7 462.6V645.4Q594.6 678.2 544.8 697.2Q495 716.2 418 716.2Q333.8 716.2 263.1 690Q192.5 663.8 141.4 615Q90.3 566.2 62 499Q33.8 431.7 33.8 350Q33.8 268.3 62 201Q90.3 133.8 141.4 85Q192.5 36.2 263.1 10Q333.8 -16.2 418 -16.2Q495 -16.2 544.8 3.1Q594.6 22.4 636.7 54.6V237.4Q614 212.6 584 191.6Q554.1 170.6 516 157.6Q477.9 144.6 427.9 144.6Q371.3 144.6 323.8 169Q276.3 193.5 247.3 239.6Q218.2 285.8 218.2 350Z"/>
</g>
</svg>
